<mxfile host="app.diagrams.net" modified="2024-07-08T02:26:31.270Z" agent="Mozilla/5.0 (Windows NT 10.0; Win64; x64) AppleWebKit/537.36 (KHTML, like Gecko) Chrome/126.0.0.0 Safari/537.36 Edg/126.0.0.0" version="24.6.4" etag="gaB5o5Eqwip9K77Ch3Wj" type="github">
  <diagram name="페이지-1" id="-nUtDd8bcNT2HyGFDiSX">
    <mxGraphModel>
      <root>
        <mxCell id="0" />
        <mxCell id="1" parent="0" />
      </root>
    </mxGraphModel>
  </diagram>
</mxfile>
